<svg width="75" height="75" viewBox="0 0 75 75" fill="none" xmlns="http://www.w3.org/2000/svg">
<path fill-rule="evenodd" clip-rule="evenodd" d="M37.5 75C16.7883 75 0 58.2117 0 37.5C0 16.7883 16.7883 0 37.5 0C58.2117 0 75 16.7883 75 37.5C75 58.2117 58.2117 75 37.5 75ZM54.3492 32.8594C55.0852 27.9469 51.3422 25.3055 46.2281 23.543L47.8875 16.8867L43.8375 15.8789L42.2203 22.3594C41.1562 22.0922 40.0641 21.8438 38.9742 21.5953L40.6031 15.0727L36.5531 14.0625L34.8937 20.7164C34.0125 20.5148 33.1453 20.318 32.3063 20.107L32.3109 20.0859L26.7234 18.6914L25.6453 23.018C25.6453 23.018 28.6523 23.707 28.5891 23.7492C30.2297 24.1594 30.525 25.2445 30.4758 26.107L28.5867 33.6891C28.6992 33.7172 28.8445 33.7594 29.0086 33.8227L28.5797 33.7172L25.9312 44.3391C25.7297 44.8359 25.2211 45.5836 24.0727 45.3C24.1148 45.3586 21.1289 44.5664 21.1289 44.5664L19.118 49.2023L24.3914 50.5172C25.3711 50.7633 26.332 51.0211 27.2766 51.2625L25.6008 57.9937L29.6484 59.0016L31.3078 52.3453C32.4141 52.643 33.4875 52.9195 34.5375 53.182L32.8828 59.8102L36.9328 60.818L38.6086 54.1008C45.518 55.4086 50.7117 54.8812 52.8984 48.6328C54.6609 43.6031 52.8117 40.6992 49.1766 38.8078C51.825 38.1984 53.8172 36.457 54.3492 32.8594ZM45.0914 45.8391C43.8422 50.8711 35.3695 48.15 32.6227 47.468L34.8492 38.55C37.5961 39.2367 46.4016 40.5938 45.0914 45.8391ZM46.3453 32.7867C45.2039 37.3641 38.1539 35.0367 35.8688 34.4672L37.8844 26.3812C40.1695 26.9508 47.5359 28.0125 46.3453 32.7867Z" fill="#EAAC0C"/>
</svg>
