<svg width="61" height="55" viewBox="0 0 61 55" fill="none" xmlns="http://www.w3.org/2000/svg">
<path d="M30.5007 0L13.3123 1.80836L0.00488281 19.5838L30.5007 54.9199L60.9965 19.5836L47.6894 1.80836L30.5007 0Z" fill="#FDB300"/>
<path d="M0.00415039 19.5838L30.5 54.9199L12.3564 19.5838H0.00415039Z" fill="#EB6C00"/>
<path d="M48.6433 19.5838L30.5 54.9199L60.9958 19.5838H48.6433Z" fill="#EB6C00"/>
<path d="M12.3564 19.5838L30.5 54.9199L48.6436 19.5838H12.3564Z" fill="#FDAD00"/>
<path d="M13.3116 1.80836L12.3562 19.5838L30.5 0L13.3116 1.80836Z" fill="#FDD231"/>
<path d="M48.6433 19.5838L47.6884 1.80836L30.5 0L48.6433 19.5838Z" fill="#FDD231"/>
<path d="M48.6436 19.5838H60.9959L47.6887 1.80835L48.6436 19.5838Z" fill="#FDAD00"/>
<path d="M0.00415039 19.5838H12.3564L13.3115 1.80835L0.00415039 19.5838Z" fill="#FDAD00"/>
<path d="M30.5 0L12.3564 19.5836H48.6436L30.5 0Z" fill="#FEEEB7"/>
</svg>
