<svg width="40" height="40" viewBox="0 0 40 40" fill="none" xmlns="http://www.w3.org/2000/svg">
<path d="M37.9688 0.46875H2.03125C1.16699 0.46875 0.46875 1.16699 0.46875 2.03125V37.9688C0.46875 38.833 1.16699 39.5312 2.03125 39.5312H37.9688C38.833 39.5312 39.5312 38.833 39.5312 37.9688V2.03125C39.5312 1.16699 38.833 0.46875 37.9688 0.46875ZM36.4062 23.125H20.7812V16.875H36.4062V23.125ZM23.3203 20C23.3203 20.518 23.5261 21.0148 23.8924 21.3811C24.2586 21.7474 24.7554 21.9531 25.2734 21.9531C25.7914 21.9531 26.2882 21.7474 26.6545 21.3811C27.0208 21.0148 27.2266 20.518 27.2266 20C27.2266 19.482 27.0208 18.9852 26.6545 18.6189C26.2882 18.2526 25.7914 18.0469 25.2734 18.0469C24.7554 18.0469 24.2586 18.2526 23.8924 18.6189C23.5261 18.9852 23.3203 19.482 23.3203 20Z" fill="#FDAD00"/>
</svg>
