<svg width="75" height="75" viewBox="0 0 75 75" fill="none" xmlns="http://www.w3.org/2000/svg">
<path fill-rule="evenodd" clip-rule="evenodd" d="M37.5 0C16.7898 0 0 16.7898 0 37.5C0 58.2102 16.7898 75 37.5 75C58.2102 75 75 58.2102 75 37.5C75 16.7898 58.2102 0 37.5 0ZM23.8636 34.0909C22.9595 34.0909 22.0924 34.4501 21.453 35.0894C20.8137 35.7287 20.4545 36.5959 20.4545 37.5C20.4545 38.4041 20.8137 39.2713 21.453 39.9106C22.0924 40.5499 22.9595 40.9091 23.8636 40.9091H51.1364C52.0405 40.9091 52.9076 40.5499 53.547 39.9106C54.1863 39.2713 54.5455 38.4041 54.5455 37.5C54.5455 36.5959 54.1863 35.7287 53.547 35.0894C52.9076 34.4501 52.0405 34.0909 51.1364 34.0909H23.8636Z" fill="#D100B0"/>
</svg>
