<svg width="75" height="75" viewBox="0 0 75 75" fill="none" xmlns="http://www.w3.org/2000/svg">
<path d="M37.5 0C27.5915 0.119543 18.1225 4.10881 11.1157 11.1157C4.10881 18.1225 0.119543 27.5915 0 37.5C0.119543 47.4085 4.10881 56.8775 11.1157 63.8843C18.1225 70.8912 27.5915 74.8805 37.5 75C47.4085 74.8805 56.8775 70.8912 63.8843 63.8843C70.8912 56.8775 74.8805 47.4085 75 37.5C74.8805 27.5915 70.8912 18.1225 63.8843 11.1157C56.8775 4.10881 47.4085 0.119543 37.5 0ZM58.9286 40.1786H40.1786V58.9286H34.8214V40.1786H16.0714V34.8214H34.8214V16.0714H40.1786V34.8214H58.9286V40.1786Z" fill="#D100B0"/>
</svg>
